:SAMPLES-PER-SECOND 30
:FULLY-SPECIFIED
:DEGREES
154
root  -7.21858 28.6282 -4.92354 78.9026 -62.1291 -67.1474
RightUpLeg  -56.9827 -9.46428 23.3179
RightLeg  78.9686 -0.0680222 -2.21679
RightFoot  -32.701 0.0738003 1.57259
RightToes  -1.16417e-010 0 -3.6325e-017
Spine  8.962 -4.15245 9.37416
Spine1  17.5666 2.00419 -18.935
HEad  -45.7775 -32.2097 0.0438186
LeftShoulder1  0.68051 0.517037 -16.0356
LeftArm  -12.0537 -5.69868 -40.0251
LeftForeArm  156.197 -65.7184 -156.751
LeftHand  -0.0272626 6.05243 1.71891
RightShoulder  -0.450121 -4.91656 24.9883
RightArm  24.3095 2.40021 52.6969
RightForeArm  124.302 58.8109 159.761
RightHand  0.505985 2.91738 6.84331
LeftUpLeg  -68.7727 8.29121 43.546
LeftLeg  84.1755 -0.942723 -10.0235
LeftFoot  -26.8635 -0.601089 -5.58765
LeftToes  1.47335e-010 -1.29615e-010 3.08757e-011
155
root  -6.70563 28.5785 -4.92038 76.2698 -63.7239 -66.2509
RightUpLeg  -56.5227 -9.80326 21.1362
RightLeg  79.6082 -0.0850818 -2.49869
RightFoot  -32.3641 0.130511 1.89099
RightToes  -1.16417e-010 0 -3.6325e-017
Spine  15.7403 -4.08299 6.5121
Spine1  15.7424 1.75981 -18.0391
HEad  -44.9021 -33.1663 0.680344
LeftShoulder1  0.767233 -0.0377009 -14.7697
LeftArm  -15.8065 -7.70048 -39.9767
LeftForeArm  155.862 -67.3126 -154.997
LeftHand  -0.0167105 6.08008 2.23582
RightShoulder  -0.431019 -4.84633 25.1928
RightArm  24.4417 2.43921 52.46
RightForeArm  123.485 58.9404 159.607
RightHand  0.49053 3.01228 6.54144
LeftUpLeg  -68.3462 6.52802 41.7114
LeftLeg  84.1181 -0.900686 -9.26467
LeftFoot  -26.0804 -0.501124 -5.08576
LeftToes  1.47335e-010 -1.29615e-010 3.08757e-011
156
root  -6.55009 28.502 -4.79926 77.1328 -62.9244 -64.2822
RightUpLeg  -59.7831 -9.7443 21.8475
RightLeg  79.4742 -0.103039 -2.5814
RightFoot  -32.1067 0.195275 2.25872
RightToes  -1.16417e-010 0 -3.6325e-017
Spine  16.091 -4.20791 7.3432
Spine1  15.3864 1.48637 -18.0572
HEad  -43.6435 -33.0042 0.125855
LeftShoulder1  0.786602 -0.253955 -13.9859
LeftArm  -19.4465 -9.34264 -38.7221
LeftForeArm  154.098 -68.9049 -152.767
LeftHand  -0.0148731 6.22932 2.45521
RightShoulder  -0.376621 -4.6804 25.0283
RightArm  24.4301 2.40044 52.5753
RightForeArm  123.253 59.1023 159.468
RightHand  0.50019 3.45833 6.30065
LeftUpLeg  -71.8911 7.4681 41.5723
LeftLeg  84.0518 -0.895549 -9.04291
LeftFoot  -25.3909 -0.44188 -4.81897
LeftToes  1.47335e-010 -1.29615e-010 3.08757e-011
157
root  -6.3264 28.4125 -4.68942 76.9831 -62.8612 -62.4222
RightUpLeg  -62.1548 -9.81733 21.6397
RightLeg  79.666 -0.134186 -2.85397
RightFoot  -31.8276 0.24289 2.54285
RightToes  -1.16417e-010 0 -3.6325e-017
Spine  17.4144 -4.53585 7.74289
Spine1  15.0061 1.28525 -18.7049
HEad  -42.372 -32.4834 0.140706
LeftShoulder1  0.752672 -0.308134 -12.6644
LeftArm  -22.5883 -11.2369 -37.2856
LeftForeArm  149.245 -71.2404 -148.589
LeftHand  -0.0115739 5.92663 3.49807
RightShoulder  -0.322933 -4.50011 25.2957
RightArm  24.1326 2.47251 52.6915
RightForeArm  124.244 59.2691 159.413
RightHand  0.398608 3.21094 5.12974
LeftUpLeg  -74.4339 7.72621 40.7966
LeftLeg  84.0208 -0.881479 -8.77567
LeftFoot  -24.6848 -0.347299 -4.23512
LeftToes  1.47335e-010 -1.29615e-010 3.08757e-011
158
root  -6.11924 28.2788 -4.5653 76.1784 -63.1423 -60.4392
RightUpLeg  -64.1153 -10.3158 20.9962
RightLeg  80.2421 -0.0929059 -2.77444
RightFoot  -31.8124 0.324766 2.99694
RightToes  -1.16417e-010 0 -3.6325e-017
Spine  17.4044 -4.69504 7.79892
Spine1  17.171 1.49537 -18.9876
HEad  -41.8482 -32.9243 0.707001
LeftShoulder1  0.707008 -0.268629 -11.5828
LeftArm  -25.954 -13.9998 -36.0398
LeftForeArm  144.869 -73.4839 -143.453
LeftHand  0.014555 6.93898 3.65072
RightShoulder  -0.315191 -4.49198 24.734
RightArm  23.3031 2.9341 53.9878
RightForeArm  126.534 59.6615 159.284
RightHand  0.471405 3.95746 5.58348
LeftUpLeg  -76.586 7.65525 39.6557
LeftLeg  84.24 -0.837096 -8.6206
LeftFoot  -24.1648 -0.288051 -3.85406
LeftToes  1.47335e-010 -1.29615e-010 3.08757e-011
159
root  -6.07697 28.0448 -4.31767 77.4135 -62.2633 -58.3104
RightUpLeg  -67.9948 -10.6338 21.7332
RightLeg  80.7879 -0.0801178 -2.90024
RightFoot  -31.9237 0.408685 3.44779
RightToes  -1.16417e-010 0 -3.6325e-017
Spine  14.2264 -4.79114 10.2957
Spine1  19.422 1.79396 -19.5037
HEad  -40.5687 -33.4348 -0.369434
LeftShoulder1  0.727799 -0.53104 -10.7798
LeftArm  -28.4997 -16.1903 -35.1633
LeftForeArm  136.8 -75.7634 -135.8
LeftHand  0.0501352 6.98219 5.75021
RightShoulder  -0.271068 -4.37708 23.8038
RightArm  21.5413 2.35535 54.8584
RightForeArm  128.811 59.8588 159.307
RightHand  0.394781 3.65052 4.81254
LeftUpLeg  -80.8652 8.72078 39.296
LeftLeg  84.8287 -0.747044 -8.62524
LeftFoot  -23.8502 -0.268728 -3.75788
LeftToes  1.47335e-010 -1.29615e-010 3.08757e-011
